<?xml version="1.0" encoding="UTF-8" standalone="no"?>
<svg
   xmlns:dc="http://purl.org/dc/elements/1.1/"
   xmlns:cc="http://creativecommons.org/ns#"
   xmlns:rdf="http://www.w3.org/1999/02/22-rdf-syntax-ns#"
   xmlns:svg="http://www.w3.org/2000/svg"
   xmlns="http://www.w3.org/2000/svg"
   height="100%"
   width="100%"
   version="1.1"
   viewBox="0 0 74.500001 101.15625"
   id="svg2">
  <defs
     id="defs4">
    <linearGradient
       id="linearGradient3802"
       y2="957.35999"
       gradientUnits="userSpaceOnUse"
       x2="80"
       gradientTransform="translate(2,-2)"
       y1="944.35999"
       x1="93">
      <stop
         id="stop3804"
         stop-color="#ccc"
         offset="0" />
      <stop
         id="stop3806"
         stop-color="#e6e6e6"
         offset="0.41879094" />
      <stop
         id="stop3808"
         stop-color="#fff"
         offset=".46933" />
      <stop
         id="stop3810"
         stop-color="#e6e6e6"
         offset="1" />
    </linearGradient>
    <linearGradient
       id="linearGradient3794"
       y2="-112"
       gradientUnits="userSpaceOnUse"
       x2="-80"
       gradientTransform="translate(2,922.36)"
       y1="123"
       x1="105">
      <stop
         style="stop-color:#ffffff;stop-opacity:1"
         id="stop3796"
         stop-color="#e6e6e6"
         offset="0" />
      <stop
         id="stop3798"
         stop-color="#f9f9f9"
         offset="1" />
    </linearGradient>
    <linearGradient
       x1="105"
       y1="123"
       gradientTransform="translate(2,922.36)"
       x2="-80"
       gradientUnits="userSpaceOnUse"
       y2="-112"
       id="linearGradient3046">
      <stop
         offset="0"
         stop-color="#e6e6e6"
         id="stop3602" />
      <stop
         offset="1"
         stop-color="#f9f9f9"
         id="stop3604" />
    </linearGradient>
    <linearGradient
       x1="93"
       y1="944.35999"
       gradientTransform="translate(2,-2)"
       x2="80"
       gradientUnits="userSpaceOnUse"
       y2="957.35999"
       id="linearGradient3048">
      <stop
         offset="0"
         stop-color="#ccc"
         id="stop3610" />
      <stop
         offset=".22008"
         stop-color="#e6e6e6"
         id="stop3616" />
      <stop
         offset=".46933"
         stop-color="#fff"
         id="stop3618" />
      <stop
         offset="1"
         stop-color="#e6e6e6"
         id="stop3612" />
    </linearGradient>
  </defs>
  <path
     id="path3896"
     d="m 0.56917156,34.944414 0,31.25 73.36099944,0 0,-31.25 -73.36099944,0 z"
     style="fill:#aa0000;stroke-width:0" />
  <metadata
     id="metadata20">
    <rdf:RDF>
      <cc:Work>
        <dc:format>image/svg+xml</dc:format>
        <dc:type
           rdf:resource="http://purl.org/dc/dcmitype/StillImage" />
        <cc:license
           rdf:resource="http://creativecommons.org/licenses/publicdomain/" />
        <dc:publisher>
          <cc:Agent
             rdf:about="http://openclipart.org/">
            <dc:title>Openclipart</dc:title>
          </cc:Agent>
        </dc:publisher>
        <dc:title></dc:title>
      </cc:Work>
      <cc:License
         rdf:about="http://creativecommons.org/licenses/publicdomain/">
        <cc:permits
           rdf:resource="http://creativecommons.org/ns#Reproduction" />
        <cc:permits
           rdf:resource="http://creativecommons.org/ns#Distribution" />
        <cc:permits
           rdf:resource="http://creativecommons.org/ns#DerivativeWorks" />
      </cc:License>
    </rdf:RDF>
  </metadata>
  <path
     d="M 73.504684,15.348495 59.150847,0.99465771 l 0,14.35383729 14.353837,0 z M 0.9949881,1.0033689 l 0,99.1495111 72.5100259,0 0,-84.795674 -14.353837,-14.3538371 -58.1561889,0 z"
     style="color:#000000;fill:none;stroke:#000000;stroke-width:2;stroke-linecap:butt;stroke-linejoin:miter;stroke-miterlimit:0;stroke-opacity:1;stroke-dasharray:none;marker:none;visibility:visible;display:inline;overflow:visible;enable-background:accumulate"
     id="rect3820-3" />
  <g
     id="text31"
     style="font-style:normal;font-variant:normal;font-weight:500;font-stretch:normal;font-size:24px;line-height:25px;font-family:ryt1xbttsc;-inkscape-font-specification:'ryt1xbttsc, Medium';font-variant-ligatures:normal;font-variant-caps:normal;font-variant-numeric:normal;font-feature-settings:normal;text-align:start;letter-spacing:0px;word-spacing:0px;writing-mode:lr-tb;text-anchor:start;fill:#ffffff;fill-opacity:1;stroke:none;stroke-width:1px;stroke-linecap:butt;stroke-linejoin:miter;stroke-opacity:1"
     aria-label=".html">
    <path
       id="path838"
       style=""
       d="m 12.379251,56.470123 v -3.744 H 8.6352507 v 3.744 z" />
    <path
       id="path840"
       style=""
       d="m 28.828626,56.470123 v -2.088 h -1.224 v -7.608 h 1.224 v -2.088 h -5.112 v 2.088 h 1.224 v 2.688 h -3.624 v -2.688 h 1.248 v -2.088 h -5.136 v 2.088 h 1.248 v 7.608 h -1.248 v 2.088 h 5.136 v -2.088 h -1.248 v -2.832 h 3.624 v 2.832 h -1.224 v 2.088 z" />
    <path
       id="path842"
       style=""
       d="m 41.126001,48.118123 v -3.432 h -10.776 v 3.432 h 2.232 v -1.344 h 1.824 v 7.608 h -1.584 v 2.088 h 5.832 v -2.088 h -1.56 v -7.608 h 1.8 v 1.344 z" />
    <path
       id="path844"
       style=""
       d="m 53.903376,56.470123 v -2.088 h -1.224 v -7.608 h 1.224 v -2.088 h -4.248 l -1.368,3.624 -1.368,-3.624 h -4.152 v 2.088 h 1.248 v 7.608 h -1.248 v 2.088 h 4.608 v -2.088 h -1.344 v -5.448 l 1.104,2.928 h 2.136 l 1.056,-2.952 v 5.472 h -1.224 v 2.088 z" />
    <path
       id="path846"
       style=""
       d="m 65.864751,56.470123 v -3.456 h -2.232 v 1.368 h -4.056 v -7.608 h 1.224 v -2.088 h -5.136 v 2.088 h 1.248 v 7.608 h -1.248 v 2.088 z" />
  </g>
</svg>
