<?xml version="1.0" encoding="UTF-8" standalone="no"?>
<!-- Created with Inkscape (http://www.inkscape.org/) -->

<svg
   xmlns:dc="http://purl.org/dc/elements/1.1/"
   xmlns:cc="http://creativecommons.org/ns#"
   xmlns:rdf="http://www.w3.org/1999/02/22-rdf-syntax-ns#"
   xmlns:svg="http://www.w3.org/2000/svg"
   xmlns="http://www.w3.org/2000/svg"
   xmlns:sodipodi="http://sodipodi.sourceforge.net/DTD/sodipodi-0.dtd"
   xmlns:inkscape="http://www.inkscape.org/namespaces/inkscape"
   width="16"
   height="16"
   viewBox="0 0 16.000001 16.000001"
   id="svg19726"
   version="1.1"
   inkscape:version="0.91 r13725"
   sodipodi:docname="running-icon.svg">
  <title
     id="title4153">Running Icon</title>
  <defs
     id="defs19728" />
  <sodipodi:namedview
     id="base"
     pagecolor="#ffffff"
     bordercolor="#666666"
     borderopacity="1.0"
     inkscape:pageopacity="0.0"
     inkscape:pageshadow="2"
     inkscape:zoom="22.4"
     inkscape:cx="-1.6947985"
     inkscape:cy="9.9891647"
     inkscape:document-units="px"
     inkscape:current-layer="layer1"
     showgrid="false"
     fit-margin-top="0"
     fit-margin-left="0"
     fit-margin-right="0"
     fit-margin-bottom="0"
     inkscape:window-width="1600"
     inkscape:window-height="947"
     inkscape:window-x="1366"
     inkscape:window-y="0"
     inkscape:window-maximized="1"
     units="px" />
  <metadata
     id="metadata19731">
    <rdf:RDF>
      <cc:Work
         rdf:about="">
        <dc:format>image/svg+xml</dc:format>
        <dc:type
           rdf:resource="http://purl.org/dc/dcmitype/StillImage" />
        <dc:title>Running Icon</dc:title>
        <cc:license
           rdf:resource="http://creativecommons.org/publicdomain/zero/1.0/" />
        <dc:source>https://openclipart.org/detail/254287</dc:source>
        <dc:date>2017-08-12</dc:date>
      </cc:Work>
      <cc:License
         rdf:about="http://creativecommons.org/publicdomain/zero/1.0/">
        <cc:permits
           rdf:resource="http://creativecommons.org/ns#Reproduction" />
        <cc:permits
           rdf:resource="http://creativecommons.org/ns#Distribution" />
        <cc:permits
           rdf:resource="http://creativecommons.org/ns#DerivativeWorks" />
      </cc:License>
    </rdf:RDF>
  </metadata>
  <g
     inkscape:label="Layer 1"
     inkscape:groupmode="layer"
     id="layer1"
     transform="translate(987.03736,-429.19695)">
    <path
       inkscape:export-ydpi="102.07"
       inkscape:export-xdpi="102.07"
       sodipodi:nodetypes="sssssssccccccccccccccccssccccs"
       d="m -973.81611,431.08023 c 0.27594,1.00237 -0.31294,2.03863 -1.31531,2.31457 -1.00235,0.27594 -2.03862,-0.31293 -2.31456,-1.3153 -0.27594,-1.00236 0.31294,-2.03862 1.31529,-2.31456 1.00237,-0.27594 2.03863,0.31293 2.31458,1.31529 z m -9.00997,3.06751 c -1.03814,0.28579 -0.60947,1.84298 0.42867,1.55718 l 3.07126,-0.84549 -2.45886,4.32689 -3.60808,0.99327 c -1.31989,0.34342 -0.77435,2.32511 0.53533,1.94457 l 4.01072,-1.10412 c 0.25829,-0.0705 0.47794,-0.24063 0.61058,-0.47315 l 0.9689,-1.70498 1.51371,0.85806 -1.97622,3.47769 c -0.66375,1.17059 1.09214,2.16627 1.75589,0.99569 l 2.47349,-4.35275 c 0.27492,-0.48417 0.10542,-1.09963 -0.37849,-1.37486 l -1.30773,-0.74318 1.06616,-1.87603 0.81689,0.46425 c 0.18584,0.10569 0.40596,0.13325 0.61214,0.0766 l 2.17247,-0.59806 c 1.03814,-0.28579 0.60947,-1.84296 -0.42868,-1.55716 l -1.85083,0.50951 -1.35946,-0.77251 -1.64998,-0.93768 c -0.18584,-0.10569 -0.4061,-0.13325 -0.61227,-0.0767 z"
       style="color:#000000;clip-rule:nonzero;display:inline;overflow:visible;visibility:visible;opacity:1;isolation:auto;mix-blend-mode:normal;color-interpolation:sRGB;color-interpolation-filters:linearRGB;solid-color:#000000;solid-opacity:1;fill:#000000;fill-opacity:1;fill-rule:nonzero;stroke:none;stroke-width:1.5;stroke-linecap:round;stroke-linejoin:round;stroke-miterlimit:4;stroke-dasharray:none;stroke-dashoffset:0;stroke-opacity:1;color-rendering:auto;image-rendering:auto;shape-rendering:auto;text-rendering:auto;enable-background:accumulate"
       id="circle11059-4-2"
       inkscape:connector-curvature="0" />
  </g>
</svg>
